<svg width="40" height="40" viewBox="0 0 40 40" fill="none" xmlns="http://www.w3.org/2000/svg">
<path d="M14.9999 36.6668H24.9999C33.3333 36.6668 36.6666 33.3335 36.6666 25.0002V15.0002C36.6666 6.66683 33.3333 3.3335 24.9999 3.3335H14.9999C6.66659 3.3335 3.33325 6.66683 3.33325 15.0002V25.0002C3.33325 33.3335 6.66659 36.6668 14.9999 36.6668Z" stroke="#008EC4" stroke-width="2.5" stroke-linecap="round" stroke-linejoin="round"/>
<path d="M22.7834 12.5173C21.9501 12.2673 21.0334 12.1006 20.0001 12.1006C15.4001 12.1006 11.6667 15.8339 11.6667 20.4339C11.6667 25.0339 15.4001 28.7673 20.0001 28.7673C24.6001 28.7673 28.3334 25.0339 28.3334 20.4339C28.3334 18.7173 27.8168 17.1339 26.9334 15.8006" stroke="#008EC4" stroke-width="2.5" stroke-linecap="round" stroke-linejoin="round"/>
<path d="M23.9666 12.7502L21.2 9.56689" stroke="#008EC4" stroke-width="2.5" stroke-linecap="round" stroke-linejoin="round"/>
<path d="M23.9665 12.7505L20.7332 15.1172" stroke="#008EC4" stroke-width="2.5" stroke-linecap="round" stroke-linejoin="round"/>
</svg>
