<svg width="40" height="40" viewBox="0 0 40 40" fill="none" xmlns="http://www.w3.org/2000/svg">
<path d="M17.4831 3.7166L9.16643 6.83326C7.24977 7.54993 5.68311 9.81657 5.68311 11.8666V24.2499C5.68311 26.2166 6.98312 28.7999 8.56646 29.9832L15.7331 35.3333C18.0831 37.0999 21.9497 37.0999 24.2997 35.3333L31.4664 29.9832C33.0498 28.7999 34.3497 26.2166 34.3497 24.2499V11.8666C34.3497 9.81657 32.7831 7.54993 30.8664 6.83326L22.5498 3.7166C21.1331 3.19993 18.8664 3.19993 17.4831 3.7166Z" stroke="#008EC4" stroke-width="2.5" stroke-linecap="round" stroke-linejoin="round"/>
<path d="M19.9999 18.1997C19.9332 18.1997 19.8499 18.1997 19.7832 18.1997C18.2166 18.1497 16.9666 16.8497 16.9666 15.2664C16.9666 13.6497 18.2832 12.333 19.8999 12.333C21.5166 12.333 22.8333 13.6497 22.8333 15.2664C22.8166 16.8664 21.5666 18.1497 19.9999 18.1997Z" stroke="#008EC4" stroke-width="2.5" stroke-linecap="round" stroke-linejoin="round"/>
<path d="M16.6834 22.8666C15.0834 23.9333 15.0834 25.6832 16.6834 26.7499C18.5001 27.9666 21.4834 27.9666 23.3001 26.7499C24.9001 25.6832 24.9001 23.9333 23.3001 22.8666C21.5001 21.6499 18.5167 21.6499 16.6834 22.8666Z" stroke="#008EC4" stroke-width="2.5" stroke-linecap="round" stroke-linejoin="round"/>
</svg>
